<svg xmlns="http://www.w3.org/2000/svg" viewBox="0 0 375.6 375.6"><defs><style>.cls-1{fill:none;stroke:#1d1d1b;stroke-miterlimit:10;stroke-width:3px;}.cls-2{fill:#054a29;}.cls-3{fill:#f6f6f6;}</style></defs><g id="Livello_2" data-name="Livello 2"><g id="Livello_1-2" data-name="Livello 1"><circle class="cls-1" cx="187.8" cy="187.8" r="186.3"/><circle class="cls-2" cx="187.8" cy="187.8" r="158.1"/><path class="cls-3" d="M200.1,239.8H175.3a12,12,0,0,1-12-12V73.3a12,12,0,0,1,12-12h24.8a12,12,0,0,1,12,12V227.8A12,12,0,0,1,200.1,239.8Z"/><path class="cls-3" d="M196,253.5l-18.7,16.2a12,12,0,0,1-16.9-1.2l-53.6-61.8a12,12,0,0,1,1.2-16.9l18.7-16.2a12,12,0,0,1,16.9,1.2l53.6,61.8A11.93,11.93,0,0,1,196,253.5Z"/><path class="cls-3" d="M176.5,284.5,159,267a12,12,0,0,1,0-17l74.6-74.6a12,12,0,0,1,17,0l17.5,17.5a12,12,0,0,1,0,17l-74.6,74.6A12,12,0,0,1,176.5,284.5Z"/></g></g></svg>