<svg xmlns="http://www.w3.org/2000/svg" xmlns:xlink="http://www.w3.org/1999/xlink" viewBox="0 0 692.58 754.66"><defs><style>.cls-1{fill:url(#Sfumatura_senza_nome);}.cls-2{fill:#505050;}.cls-3{fill:#565656;}.cls-4{fill:#fff;}.cls-5{opacity:0.24;isolation:isolate;}.cls-6{fill:#e3e2fe;}.cls-7{fill:#d3cdf0;}.cls-8{fill:#ef5644;}.cls-9{fill:#fefefe;}.cls-10{fill:#313030;}.cls-11{fill:#38607e;}.cls-12{fill:#f77d69;}.cls-13{fill:#2b4d66;}.cls-14{fill:#487b9e;}.cls-15{fill:#f57f6c;}.cls-16{fill:#fbc103;}.cls-17{fill:#f3dc46;}.cls-18{fill:#dbecfd;}.cls-19{fill:#4f7fa0;}.cls-20{fill:#d9ebfd;}</style><linearGradient id="Sfumatura_senza_nome" x1="154.85" y1="671.75" x2="747.65" y2="122.2" gradientUnits="userSpaceOnUse"><stop offset="0" stop-color="#3fa34d"/><stop offset="1" stop-color="#137547"/></linearGradient></defs><title>bike</title><g id="Livello_2" data-name="Livello 2"><g id="Livello_1-2" data-name="Livello 1"><path class="cls-1" d="M692.58,62.8V694a254.87,254.87,0,0,1-143.53,15.71C437.15,787,284.23,762.24,202.39,653.64,86.88,630,0,527.76,0,405.25c0-140,113.51-253.55,253.52-253.55A256.88,256.88,0,0,1,292,154.6C330.58,63.73,420.62,0,525.55,0A252.56,252.56,0,0,1,692.58,62.8Z"/><rect class="cls-2" x="244.15" y="528.45" width="448.43" height="26.67"/><polygon class="cls-3" points="692.58 403.85 692.58 528.45 244.15 528.45 184.58 403.85 692.58 403.85"/><polygon class="cls-4" points="377.67 463.92 229.03 463.92 226.96 448.13 375.6 448.13 377.67 463.92"/><polygon class="cls-4" points="692.58 448.13 692.58 463.92 651.97 463.92 649.9 448.13 692.58 448.13"/><polygon class="cls-4" points="584.9 463.92 436.26 463.92 434.19 448.13 582.83 448.13 584.9 463.92"/><ellipse class="cls-5" cx="469.07" cy="476.5" rx="201.5" ry="49.65"/><path class="cls-6" d="M408.11,417.91l.06,56.33c-5.85,0-11.69,0-17.53.12-1.77.05-2.34-.74-2.29-3.26.27-12-.26-24,.35-35.94.4-7.87,5.27-15.66,10.69-16.78C402.31,417.78,405.21,418.11,408.11,417.91Z"/><path class="cls-7" d="M408.11,417.91c-2.9.2-5.8-.13-8.72.47-5.42,1.12-10.29,8.91-10.69,16.78-.61,12-.08,24-.35,35.94-.05,2.52.52,3.31,2.29,3.26,5.84-.16,11.68-.1,17.53-.12,1.58,0,3.17,0,4.75.05,2.08.07,3.14,2.3,2.54,5.28q-16.26,0-32.54,0c-1.88,0-2.91,1.48-2.94,4.14,0,1.74,0,3.48,0,5.22-2.21,0-3.11-.83-3.47-3.77a27.1,27.1,0,0,1,.09-8c.34-1.92,1.16-3,2.61-2.89s3,0,4.78,0V411.86c4.42-.07,8.85-.18,13.27-.18,3.64,0,7.28.11,10.91.18Q408.14,414.88,408.11,417.91Z"/><path class="cls-6" d="M380,488.92c0-1.74,0-3.48,0-5.22,0-2.66,1.06-4.14,2.94-4.14q16.27,0,32.54,0c0,1.48,0,2.95,0,4.43,0,3.59-1,4.93-3.55,4.93H387.26Z"/><rect class="cls-7" x="386.28" y="152.8" width="20.4" height="259.06"/><path class="cls-6" d="M406.65,177.63l0,233.72c-2.92.1-5.85-.15-8.77.5-.88.19-1.17-3.07-1.14-13.54.14-49.67-.13-99.38.17-149.09.2-32.65,2.64-65,5.35-69.63C403.75,177.09,405.2,178.46,406.65,177.63Z"/><path class="cls-8" d="M379.25,174.76q-30.79,0-61.6,0c-6.39,0-10.65-3-12.18-8.56a12.8,12.8,0,0,1,1.57-10q14.49-25.6,28.86-51.28,24.75-44,49.5-88.07c3.45-6.15,8.84-8.59,14.72-6.7a12.69,12.69,0,0,1,7.24,6.37Q430.51,57.76,453.71,99q15.9,28.3,31.88,56.57c2,3.57,3.06,7.18,1.7,11.2-1.7,5-6,7.91-11.91,7.92-14,0-28,0-42,0q-9.78,0-19.57,0c-5.19-.07-10.39-.18-15.58-.18C391.89,174.59,385.57,174.69,379.25,174.76Zm17.19-14.11q32.35,0,64.71,0c4.62,0,6.07-2.57,3.79-6.61L400.5,39.56c-.9-1.61-1.78-3.29-4-3.33s-3.22,1.72-4.17,3.42L331.82,147.33c-1.44,2.58-3,5.12-4.29,7.75-1.43,2.84,0,5.28,3.17,5.53.86.07,1.73,0,2.6,0Z"/><path class="cls-9" d="M396.44,160.65H333.3c-.87,0-1.74,0-2.6,0-3.15-.25-4.6-2.69-3.17-5.53,1.32-2.63,2.85-5.17,4.29-7.75L392.37,39.65c.95-1.7,1.86-3.45,4.17-3.42s3.06,1.72,4,3.33L464.94,154c2.28,4,.83,6.6-3.79,6.61Q428.79,160.67,396.44,160.65Zm-4.64-68.8c.44,3.48.64,6.44,1.24,9.32a6.07,6.07,0,0,1-1.26,5.31,123.68,123.68,0,0,0-15.39,27.37c-1,2.37-.52,4.32,1.29,5.12s3.63,0,4.74-2.37c2-4.15,3.76-8.39,5.83-12.49,2.69-5.34,6.51-10,10-15.11a15.88,15.88,0,0,1,.64,1.49c2.94,11,10.24,19.59,16.19,28.91,1.14,1.78,2.82,2.41,4.69,1.19s1.93-3,.86-4.78c-.57-1-1.25-1.88-1.85-2.83-4.73-7.44-10.21-14.36-13.05-23-2.05-6.23-.85-12.41-1.87-18.89,4.52,2.9,7.92,5.92,8,11.27a6.1,6.1,0,0,0,.49,2,2.13,2.13,0,0,0,2.43,1.51,2.07,2.07,0,0,0,2-2.35c-.51-3.07-.47-6.42-2-9.09A57.37,57.37,0,0,0,403.4,80.19c-3.33-3-4.59-3-8.3-.59A16.92,16.92,0,0,0,391,83.51c-4,4.94-7.86,10-13.6,13.09-1.68.91-2.88,2.3-1.58,4.23s3.06,1.17,4.73.09A78.6,78.6,0,0,0,391.8,91.85Zm10.78,50.73h-.86c0-3.82,0-7.63,0-11.45,0-1.52-.52-2.23-2.11-2.2-2.17,0-4.34,0-6.51-.12-1.45-.05-2.24.41-2.32,2q-.6,11.31-1.36,22.61c-.1,1.59.49,2.21,2.06,2.2,2.86,0,5.73-.06,8.58.11,2.18.13,2.63-.8,2.54-2.78C402.46,149.52,402.58,146.05,402.58,142.58ZM343.67,155v.11c1.48,0,3-.06,4.43,0a2.09,2.09,0,0,0,2.35-1.57q4.11-11.5,8.27-23c.54-1.51,0-2.1-1.54-2.11-2,0-4,.07-6-.11a2.9,2.9,0,0,0-3.36,2c-3.2,7.21-6.57,14.35-9.87,21.52-1.25,2.72-1,3,2.06,3.09C341.24,155.06,342.45,155,343.67,155Zm104.75,1.23h1.82l2.09,0c2.82,0,3-.24,1.87-2.84-2.5-5.81-5-11.59-7.54-17.38-3.11-7.16-3.1-7.13-11-6.8-1.92.08-2.4.69-1.74,2.58,2.15,6.12,4.15,12.3,6.21,18.45C442.16,156.2,442.16,156.2,448.42,156.27Zm-71.18-27.66c-2.11,0-4,0-5.9,0A1.66,1.66,0,0,0,369.5,130c-2,7.74-4,15.48-6,23.2-.42,1.58.18,2.06,1.65,2.05,3.13,0,6.26,0,9.39.1a1.77,1.77,0,0,0,2.07-1.77c.64-4.28,1.31-8.56,2-12.85C371.08,137.59,376.09,133,377.24,128.61Zm40.88.7c0,.09-.09.2-.06.25,1,1.61,2.06,3.21,3.09,4.81,1.91,2.95,1.83,5.23-.25,7s-4.14,1.34-6.7-.87c-.07-.06-.28,0-.55.08.61,4.56,1.23,9.11,1.82,13.66.17,1.31.91,1.67,2.14,1.66,2.87,0,5.74-.05,8.6.1,2.12.12,2.8-.42,2.23-2.67-1.71-6.72-3.23-13.49-4.8-20.24C422.66,128.87,422.68,128.87,418.12,129.31ZM398.76,72a5.91,5.91,0,0,0-5.64-6,5.11,5.11,0,0,0-5,5.19,5.93,5.93,0,0,0,5.77,6.07A5.09,5.09,0,0,0,398.76,72Z"/><path class="cls-10" d="M391.8,91.85a78.6,78.6,0,0,1-11.29,9.07c-1.67,1.08-3.33,2-4.73-.09s-.1-3.32,1.58-4.23c5.74-3.12,9.62-8.15,13.6-13.09a16.92,16.92,0,0,1,4.14-3.91c3.71-2.36,5-2.39,8.3.59a57.37,57.37,0,0,1,11.26,14.27c1.54,2.67,1.5,6,2,9.09a2.07,2.07,0,0,1-2,2.35,2.13,2.13,0,0,1-2.43-1.51,6.1,6.1,0,0,1-.49-2c0-5.35-3.44-8.37-8-11.27,1,6.48-.18,12.66,1.87,18.89,2.84,8.63,8.32,15.55,13.05,23,.6,1,1.28,1.86,1.85,2.83,1.07,1.82,1,3.57-.86,4.78s-3.55.59-4.69-1.19c-6-9.32-13.25-17.9-16.19-28.91a15.88,15.88,0,0,0-.64-1.49c-3.45,5.16-7.27,9.77-10,15.11-2.07,4.1-3.87,8.34-5.83,12.49-1.11,2.36-2.86,3.2-4.74,2.37s-2.3-2.75-1.29-5.12a123.68,123.68,0,0,1,15.39-27.37,6.07,6.07,0,0,0,1.26-5.31C392.44,98.29,392.24,95.33,391.8,91.85Z"/><path class="cls-10" d="M402.58,142.58c0,3.47-.12,6.94,0,10.4.09,2-.36,2.91-2.54,2.78-2.85-.17-5.72-.13-8.58-.11-1.57,0-2.16-.61-2.06-2.2q.75-11.3,1.36-22.61c.08-1.62.87-2.08,2.32-2,2.17.09,4.34.16,6.51.12,1.59,0,2.13.68,2.11,2.2-.06,3.82,0,7.63,0,11.45Z"/><path class="cls-10" d="M343.67,155c-1.22,0-2.43,0-3.65,0-3.11-.08-3.31-.37-2.06-3.09,3.3-7.17,6.67-14.31,9.87-21.52a2.9,2.9,0,0,1,3.36-2c2,.18,4,.11,6,.11,1.51,0,2.08.6,1.54,2.11q-4.16,11.5-8.27,23a2.09,2.09,0,0,1-2.35,1.57c-1.47-.08-3,0-4.43,0Z"/><path class="cls-10" d="M448.42,156.27c-6.26-.07-6.26-.07-8.24-6-2.06-6.15-4.06-12.33-6.21-18.45-.66-1.89-.18-2.5,1.74-2.58,7.85-.33,7.84-.36,11,6.8,2.51,5.79,5,11.57,7.54,17.38,1.12,2.6.95,2.82-1.87,2.84l-2.09,0Z"/><path class="cls-10" d="M377.24,128.61c-1.15,4.35-6.16,9,1.34,12.15-.67,4.29-1.34,8.57-2,12.85a1.77,1.77,0,0,1-2.07,1.77c-3.13-.09-6.26-.1-9.39-.1-1.47,0-2.07-.47-1.65-2.05,2-7.72,4-15.46,6-23.2a1.66,1.66,0,0,1,1.84-1.44C373.23,128.66,375.13,128.61,377.24,128.61Z"/><path class="cls-10" d="M418.12,129.31c4.56-.44,4.54-.44,5.52,3.75,1.57,6.75,3.09,13.52,4.8,20.24.57,2.25-.11,2.79-2.23,2.67-2.86-.15-5.73-.13-8.6-.1-1.23,0-2-.35-2.14-1.66-.59-4.55-1.21-9.1-1.82-13.66.27-.05.48-.14.55-.08,2.56,2.21,4.75,2.5,6.7.87s2.16-4,.25-7c-1-1.6-2.07-3.2-3.09-4.81C418,129.51,418.09,129.4,418.12,129.31Z"/><path class="cls-10" d="M398.76,72a5.09,5.09,0,0,1-4.9,5.31,5.93,5.93,0,0,1-5.77-6.07,5.11,5.11,0,0,1,5-5.19A5.91,5.91,0,0,1,398.76,72Z"/><path class="cls-11" d="M356.64,356c-19.88,2.18-36.53,10.71-49.78,25.66a74.67,74.67,0,0,0-18.36,40.05c-.08.6,0,1.27-.74,1.52V442c1.74,3.31,1.65,7.1,2.74,10.6q14.26,45.6,61,55.16c1.67.34,3.32,1.17,5.12.72.16-1.65,1.58-1.29,2.57-1.55,8.44-2.24,16.6-5.23,23.87-10.15,3.17-2.15,7-3.69,8.74-7.6-.93.32-1.88.59-2.79,1a61,61,0,0,1-37,3.8c-32.55-6.91-53.37-35.47-50.2-68.62,3.63-37.82,42.39-64.3,78.75-53.79a9.36,9.36,0,0,0,1.61-4.32A78.77,78.77,0,0,0,361,358.08C359.47,357.65,357.35,358.21,356.64,356Z"/><path class="cls-12" d="M382.22,367.21a9.36,9.36,0,0,1-1.61,4.32,69.05,69.05,0,0,1-3.9,10.6c-.5,1.53-1,3.08-1.51,4.59q-6.29,17.13-12.59,34.26a13.74,13.74,0,0,1,10.37,3.9c.52-1.11,1.11-2.19,1.55-3.34q6.69-17.51,13.33-35.05a67.08,67.08,0,0,1,4-10.78,86.53,86.53,0,0,1,5-13.09c2.59-7.25,5.17-14.51,7.75-21.73,2.1,0,2.73,1.56,3.66,2.59q33.72,37.27,67.39,74.61c.5.55,1.07,1,1.61,1.55l8.4-7.57c-.39-.48-.75-1-1.16-1.45q-36.19-40.15-72.37-80.31c-1.19-1.31-2.85-2.28-1.8-4.74s3-1.79,4.72-1.8q55,0,110,0c1.16,0,2.43-.42,3.73.59-4.92,13.16-9.88,26.31-14.76,39.48-5.67,15.3-11.27,30.61-16.91,45.92a45.59,45.59,0,0,1,11.12,3.82c.48-1.66.85-3.36,1.45-5q8.05-21.69,16.18-43.34c4-10.71,8-21.41,12.32-32.89L555,366.74A78.42,78.42,0,0,1,561.05,379a61.7,61.7,0,0,1,5.3,10.52c.72,1.29,1.49,2.56,2.16,3.88Q576.79,409.67,585,426c1.22-.86,1.89-2.43,3.51-2.76,1.74-2,4.18-2,6.49-2.32-.72-1.58-1.39-3.18-2.15-4.73q-7.8-15.84-15.61-31.66a67.14,67.14,0,0,1-5.44-11.06,94,94,0,0,1-6.27-12.23c-7-14-14-28-21.14-41.94-.81-1.59-.31-2.81.16-4.23,1.72-5.3,4.52-10.23,5.36-15.83l-2.4-.29c-3.15.57-5.88-.55-8.52-2.07-1.63,4.31-3.34,8.58-4.84,12.93-.62,1.8-1.48,2.56-3.46,2.56q-56.61-.09-113.23-.06a15.44,15.44,0,0,1-2-.32c1.79-4.8,3.53-9.39,5.2-14,2.14-5.89,0-9.08-6.3-9.35a9.18,9.18,0,0,0-4.76,5.79c-.63,2.11-1.61,4.11-2.43,6.16q-10.77,28.95-21.55,57.89C384.58,361.4,383.81,364.47,382.22,367.21Z"/><path class="cls-13" d="M586.44,508.46c38.69,4.14,72.42-21,82.07-56.11,12-43.76-17-88.66-62-95.79a77.77,77.77,0,0,0-20.1-.51c.23,1.85,1.9,1.43,2.93,1.64A67.7,67.7,0,0,1,610,365.92c4.48,2.62,9.52,4.73,12.29,9.62.84.51,1.67,1,2.53,1.53,29.28,16.82,40.69,51.89,26.6,81.87-6.38,13.59-16.69,23.33-29.79,30.32-.25,1.95-1.79,3-3.15,3.95-8.61,6-17.67,11-28,13.31C589.12,506.82,587,506.29,586.44,508.46Z"/><path class="cls-13" d="M396.81,362.62a86.53,86.53,0,0,0-5,13.09c32.19,14.8,45.09,55.92,27.4,87.33-6.49,11.51-15.94,19.88-27.43,26.13-1.71,3.91-5.57,5.45-8.74,7.6-7.27,4.92-15.43,7.91-23.87,10.15-1,.26-2.41-.1-2.57,1.55,39.28,4.14,72.73-22.27,81.86-56.41a77,77,0,0,0-38.73-87.86Z"/><path class="cls-11" d="M586.44,508.46c.57-2.17,2.68-1.64,4-1.94,10.36-2.33,19.42-7.36,28-13.31,1.36-.94,2.9-2,3.15-3.95-1,.38-2.09.74-3.11,1.16-39,16.16-82.94-10.28-86.73-52.14H518.16c2.06,34.17,28.45,63.22,63.16,69.44C583,508,584.64,508.87,586.44,508.46Z"/><path class="cls-14" d="M539,296.86c2.64,1.52,5.37,2.64,8.52,2.07,1.38-.48,2.78-.9,4.14-1.44,6.82-2.73,10.47-8.08,12.14-15,1.27-5.22-1-9.09-5-12.16-14.55,0-29.11-.14-43.66.23-7.11.18-12.35,4.23-15.74,10.46-2.28,4.19-.75,6.77,4,6.81,6.72.06,13.46.21,20.18,0,5.88-.22,10.49,1.51,13.48,6.8A13.81,13.81,0,0,0,539,296.86Z"/><path class="cls-14" d="M375.25,324.49c-2-3.23-5.07-4.51-8.78-4.49-2.1,0-4.22.07-6.32-.05a8.09,8.09,0,0,1-8-7.77,7.84,7.84,0,0,1,7.2-8,12.63,12.63,0,0,0,9-4.53,10.89,10.89,0,0,0-.58-11.06c-4.27-4.63-9.51-4.18-14.79-2.58-10.66,3.24-17.09,10.44-19.42,21.33a8.35,8.35,0,0,1,1.45,3c1.75,4.3,4.08,8.27,7.88,11C353,328.7,363.84,330,375.25,324.49Z"/><path class="cls-15" d="M518.16,438.28h25.57l41.16-.2a12.81,12.81,0,0,1-.09-11.64l-41.07-.2H518.16l-.72.22a53.74,53.74,0,0,1,0,11.62Z"/><path class="cls-16" d="M517.43,438.07a53.74,53.74,0,0,0,0-11.62,29.89,29.89,0,0,0-9.24-12.87,45.66,45.66,0,0,0-11.11-3.82c-3.46.54-7,.58-10.21,2.32.05,1.55,1.46,1.91,2.4,2.54a19.78,19.78,0,0,1,8,11.86c3.34,1.54,4.43,4.22,4.38,7.78-.09,6.4.08,12.8.14,19.2C509.93,451.29,514.51,445.52,517.43,438.07Z"/><path class="cls-11" d="M558.79,270.36c4.06,3.07,6.31,6.94,5,12.16-1.67,6.89-5.32,12.24-12.14,15-1.36.54-2.76,1-4.14,1.44l2.4.29c5.1-.06,10.19-.08,15.29-.18a20.15,20.15,0,0,0,19.62-18.36c.49-5.9-2.66-10.05-8.56-10.38S564.63,270.31,558.79,270.36Z"/><path class="cls-17" d="M497.29,426.48a19.78,19.78,0,0,0-8-11.86c-.94-.63-2.35-1-2.4-2.54h-1.26l-8.4,7.57c-2.42,5.32-4.48,10.66-3.13,16.75A23,23,0,0,0,485.67,452a2.86,2.86,0,0,0,3.37-.15,13,13,0,0,0,.91-5.36c-.08-4.19-.05-8.38,0-12.57C490,428.51,491.9,426.59,497.29,426.48Z"/><path class="cls-11" d="M497.29,426.48c-5.39.11-7.32,2-7.36,7.39,0,4.19-.06,8.38,0,12.57a13,13,0,0,1-.91,5.36c1.62,2.49.76,5.27.85,7.92.13,3.81,0,7.64,0,11.46l11.82,0q.06-8.86.11-17.74c-.06-6.4-.23-12.8-.14-19.2C501.72,430.7,500.63,428,497.29,426.48Z"/><path class="cls-11" d="M622.29,375.54c-2.77-4.89-7.81-7-12.29-9.62a67.7,67.7,0,0,0-20.63-8.23c-1-.21-2.7.21-2.93-1.64a80.28,80.28,0,0,0-20.87,5.17,94,94,0,0,0,6.27,12.23,66.12,66.12,0,0,1,24.88-4.11C605.72,369.56,614.07,372.21,622.29,375.54Z"/><path class="cls-11" d="M375.25,324.49c-11.41,5.47-22.21,4.21-32.32-3.17-3.8-2.77-6.13-6.74-7.88-11a8.35,8.35,0,0,0-1.45-3c-2.33,17.67,9.48,31.49,27.29,31.88a42.7,42.7,0,0,0,7.42-.25C375.65,337.81,378.79,331.11,375.25,324.49Z"/><path class="cls-18" d="M367.81,288.57a10.89,10.89,0,0,1,.58,11.06c1.43.93,3,.88,4.66.88l34.15.05c.82-2.05,1.8-4.05,2.43-6.16a9.18,9.18,0,0,1,4.76-5.79Z"/><path class="cls-19" d="M501.7,471.2l-11.82,0a47.76,47.76,0,0,0-5.22.13c-3.21.41-5.25,2.19-5.46,5.56a5.47,5.47,0,0,0,5.37,6c7.45.21,14.92.21,22.37,0a5.49,5.49,0,0,0,5.39-6c-.17-3.4-2.22-5.16-5.42-5.57A45.16,45.16,0,0,0,501.7,471.2Z"/><path class="cls-13" d="M382.22,367.21c1.59-2.74,2.36-5.81,3.43-8.76a77.8,77.8,0,0,0-29-2.41c.71,2.17,2.83,1.61,4.31,2A78.77,78.77,0,0,1,382.22,367.21Z"/><path class="cls-20" d="M391.82,489.17c11.49-6.25,20.94-14.62,27.43-26.13,17.69-31.41,4.79-72.53-27.4-87.33a67.08,67.08,0,0,0-4,10.78c.83.54,1.64,1.13,2.51,1.6,17.59,9.5,27.88,32.23,24.8,51.54-4.67,29.26-31,47.77-59.06,43.36-28.71-4.52-47.48-32-42.11-60.72,3.7-19.89,20.32-36.43,39.88-40.3,7.71-1.53,15.23-1,22.83.16a69.05,69.05,0,0,0,3.9-10.6c-36.36-10.51-75.12,16-78.75,53.79-3.17,33.15,17.65,61.71,50.2,68.62a61,61,0,0,0,37-3.8C389.94,489.76,390.89,489.49,391.82,489.17Z"/><path class="cls-20" d="M577.28,384.51c1.69-2,4.23-1.94,6.47-2.41,16.35-3.44,31,.39,43.82,10.93a48.53,48.53,0,0,1,17.72,31.85c1.76,13.58-1,26.45-9.48,37.72-8.3,11-19.17,18.12-32.74,20.27-15,2.37-28.71-.94-40.76-10.64a51.51,51.51,0,0,1-18.1-29.16,26.92,26.92,0,0,1-.48-4.79H531.79c3.79,41.86,47.77,68.3,86.73,52.14,1-.42,2.07-.78,3.11-1.16,13.1-7,23.41-16.73,29.79-30.32,14.09-30,2.68-65.05-26.6-81.87-.86-.49-1.69-1-2.53-1.53-8.22-3.33-16.57-6-25.57-6.2a66.12,66.12,0,0,0-24.88,4.11A67.14,67.14,0,0,0,577.28,384.51Z"/><path class="cls-11" d="M555,366.74q-33.11,20.65-36.8,59.49h13.63q3.48-30.53,29.26-47.25A78.42,78.42,0,0,0,555,366.74Z"/><path class="cls-20" d="M561.05,379q-25.8,16.71-29.26,47.25h11.94c1.65-15.87,9.34-28,22.62-36.74A61.7,61.7,0,0,0,561.05,379Z"/><path class="cls-13" d="M588.55,441.28c3.64,3.09,7.55,2.71,11.36.59a10.49,10.49,0,0,0,5.65-10.18,11,11,0,0,0-7-9.77,24.92,24.92,0,0,0-3.55-1c-2.31.35-4.75.34-6.49,2.32,4.29,1.53,5.37,5,5.37,9S592.86,439.77,588.55,441.28Z"/><path class="cls-13" d="M359.58,442.05c3.75,2.91,10,.92,12.83-2.11a11.45,11.45,0,0,0,1.82-12.79c-.38-.77-.83-1.51-1.25-2.27a13.74,13.74,0,0,0-10.37-3.9l-3,1.47c1,1.87,2.87,3,3.65,5.09C365.38,433.28,363.55,437.91,359.58,442.05Z"/><path class="cls-11" d="M588.55,441.28c4.31-1.51,5.36-5,5.37-9s-1.08-7.51-5.37-9c-1.62.33-2.29,1.9-3.51,2.76a2.25,2.25,0,0,0-.24.46,12.81,12.81,0,0,0,.09,11.64C586.13,439.12,586.77,440.86,588.55,441.28Z"/><path class="cls-11" d="M359.58,442.05c4-4.14,5.8-8.77,3.65-14.51-.78-2.08-2.68-3.22-3.65-5.09C351.18,427.34,351.18,437.17,359.58,442.05Z"/></g></g></svg>