<svg xmlns="http://www.w3.org/2000/svg" xmlns:xlink="http://www.w3.org/1999/xlink" viewBox="0 0 784 632"><defs><style>.cls-1{fill:url(#Sfumatura_senza_nome_13);}.cls-2{fill:#565656;}.cls-3{fill:#fff;}.cls-4{opacity:0.24;}.cls-5{fill:#31a6fa;}.cls-6{fill:#8dc9fb;}.cls-7{fill:#b5dafc;}.cls-8{fill:#1576f6;}.cls-9{fill:#63b8fb;}.cls-10{fill:#d7eafc;}.cls-11{fill:#0c4e68;}.cls-12{fill:#b8d4e4;}.cls-13{fill:#f96450;}.cls-14{fill:#db4632;}.cls-15{fill:#f9b300;}.cls-16{fill:#b4dafc;}.cls-17{fill:#d8ebfc;}.cls-18{fill:#094d68;}.cls-19{fill:#0d5f7f;}</style><linearGradient id="Sfumatura_senza_nome_13" x1="637.84" y1="62.95" x2="43.6" y2="626.2" gradientUnits="userSpaceOnUse"><stop offset="0" stop-color="#2a9134"/><stop offset="1" stop-color="#137547"/></linearGradient></defs><title>car</title><g id="Livello_2" data-name="Livello 2"><g id="Livello_1-2" data-name="Livello 1"><path class="cls-1" d="M784,376c0,128.68-104.32,233-233,233a232,232,0,0,1-124.51-36,169.8,169.8,0,0,1-112.08,8.08A233,233,0,0,1,0,559.41V143.06C35.19,59,118.2,0,215,0A233,233,0,0,1,420.84,123.72a207.24,207.24,0,0,1,67.52,27.8A233.2,233.2,0,0,1,551,143C679.68,143,784,247.32,784,376Z"/><rect class="cls-2" y="302" width="523" height="199"/><rect class="cls-3" x="245" y="356" width="24" height="124"/><ellipse class="cls-4" cx="260.5" cy="409" rx="201.5" ry="82"/><path class="cls-5" d="M410.48,281.23c10.92,0,21.85,0,32.77.12,2.35,0,3.52-1.52,4.75-3.08v-3.75c-2-2.53-2.65-5.78-4.69-8.33-3.4-4.27-7.67-6.62-13.14-6.67-4.23,0-8.46,0-12.7,0-6.42,0-8.38,2-8.48,8.47,0,.63,0,1.25-.05,1.87C409.33,273.65,408,277.69,410.48,281.23Z"/><path class="cls-5" d="M64,278.27c1.45,2.3,3.45,3.18,6.24,3.14,10.42-.18,20.85-.14,31.28-.18,2.46-3.54,1.15-7.58,1.54-11.39,0-1.37,0-2.74-.08-4.11-.25-3.59-2.6-6.08-6.21-6.17-5.47-.14-11-.3-16.42.07-6.9.46-11.18,4.81-14.18,10.71-.71,1.4-.83,3.11-2.17,4.18Z"/><path class="cls-5" d="M218.27,204.76c-2.23,8.58-5.76,16.5-11.7,23.21l12.73.18h24.77l25.38.06,15.08-.11,37.43.1c4.74-.06,9.48-.13,14.22-.16,12.19-.09,22.89,3.89,32.46,11.45,4.08,3.22,6.79,7.57,10.42,11.13-3.29-24.9-25.9-45.65-50.55-45.79C291.76,204.6,255,204.76,218.27,204.76Z"/><path class="cls-6" d="M219.31,228.15,206.57,228c-6.77,6.88-14.66,11.85-24.13,14.11a48.6,48.6,0,0,1-20.69.23c-5.35-1-10-3.74-15-5.64a53.27,53.27,0,0,0-9.07,8.1c-1.72,1.86-2.61,4.44-5,5.75-3.31,5.1-4.54,11.1-7.14,16.51-.48,1-1,2-1.5,2.92a30.44,30.44,0,0,1-4.65,11.42c.46,2.52-1.28,4.43-1.88,6.66-.34,1.27-1.37,2.38-.9,3.85l23.16-.21q6.12-15.62,12.25-31.24c.89-2.27,1.77-3.87,4.9-2.5a43.52,43.52,0,0,0,36.13-.14C206.24,252,215.53,242.42,219.31,228.15Z"/><path class="cls-7" d="M379.06,250.62c-3.63-3.56-6.34-7.91-10.42-11.13-9.57-7.56-20.27-11.54-32.46-11.45-4.74,0-9.48.1-14.22.15.22,1.67,1.61,2.48,2.64,3.52l56.71,56.75c1.05,1.05,2,2.23,3,3.35,3.75.27,7.55-.41,11.25.69,0-3.95-3.34-7-3-11.09-2.94-3.25-3.32-7.7-5.3-11.4C385,263.34,382.71,256.69,379.06,250.62Z"/><path class="cls-8" d="M387.25,270c2,3.7,2.36,8.15,5.3,11.4l17.93-.18c-2.46-3.54-1.15-7.58-1.54-11.39Z"/><path class="cls-8" d="M119.44,281.37A30.44,30.44,0,0,0,124.09,270l-21-.11c-.39,3.81.92,7.85-1.54,11.39Z"/><path class="cls-5" d="M146.78,236.67l-6.59-5.5c-2.86,6.31-5.7,12.62-7.46,19.35,2.37-1.31,3.26-3.89,5-5.75A53.27,53.27,0,0,1,146.78,236.67Z"/><path class="cls-5" d="M395.52,292.5c-3.7-1.1-7.5-.42-11.25-.69L346,291.69l-14.25.13-25.5-.13c-1.12.06-2.24.17-3.36.17H144.31c-1.5,0-3-.12-4.49-.19l-23.16.21c-3.15,3.14-7.45,4.34-11.12,6.58-1.26.77-2.54,1.52-3.81,2.28l17.1,6.54c9.36,3.42,18.83,6.46,28.48,9,9.15,2.4,18.25,5,27.34,7.62,4.22,1.22,5.75,5.22,2.69,7.48-7.49,5.54-15,11.51-25.2,10.73-11.17-.84-22.29-2.21-33.38-3.84-5.76.17-11.38-1.12-17.06-1.72a4.17,4.17,0,0,1-4-4.61c.12-9.86.15-19.72.21-29.59-2.72,1.49-5.47,2.94-8.16,4.47a19.9,19.9,0,0,0-10.61,17.74c-.26,12.59,0,25.18,0,37.77q29.25,0,58.49,0c14.74,0,29.49.08,44.23.12l148.18,0c1.88,0,3.75-.1,5.62-.1q48.36-.06,96.73-.09c0-12.45.07-24.9.05-37.35,0-8.39-4-14.46-11.25-18.4-2.28-1.24-4.66-2.3-7-3.43,0,9.24-.05,18.48.07,27.71.05,3.51-1.42,5.45-4.85,5.85-10.89,1.28-21.78,2.51-32.66,3.76a130.16,130.16,0,0,1-18.14,2c-9.56.28-16.58-5.5-23.8-10.53-3.07-2.15-2.27-6.45,1.44-7.69a106.21,106.21,0,0,1,16.49-4.46,543,543,0,0,0,57.79-18.88C405.54,298.05,400.2,295.88,395.52,292.5Z"/><path class="cls-9" d="M124.75,441.71A27.16,27.16,0,0,1,107,429.76a23,23,0,0,1-4-12.65c-.15-10.74,0-21.49,0-32.24,11.48,0,23-.18,34.44,0,6.84.11,13.32,2.3,17.67,7.64,5.86,7.18,12.82,9.6,21.94,8.93,10.3-.76,20.7-.27,31-.32l23.07.14,71.23-.07q20.77,0,41.53.09a9.34,9.34,0,0,0,6.68-2.87c2-1.9,3.89-3.86,5.83-5.81a25.85,25.85,0,0,1,18.82-7.76c17.58-.09,35.16,0,52.75,0,1.49,0,3-.12,4.47-.19a8.77,8.77,0,0,1,.36,4.8c-.93,8-.58,16-.37,23.94s-1.84,15-7.15,21c-6.3,5.54-13.6,7.76-22,7.51-10.46-.32-20.93-.05-31.39,0q-27.93,0-55.85-.05L140,441.86ZM119.08,399c-3.63.1-5.41,1.81-5.59,5.15-.15,3,1.8,5.84,4.89,6,6.22.26,12.47.27,18.69,0,3.25-.13,5.13-2.9,5-6.26-.15-3.21-2-4.79-5.76-4.88-2.87-.07-5.73,0-8.6,0S121.94,398.92,119.08,399Zm256.43,0c-3.61.11-5.39,1.83-5.55,5.16-.15,3.07,1.78,5.84,4.87,6,6.21.26,12.45.25,18.67,0a5.4,5.4,0,0,0,5-5.86c-.12-3.37-1.89-5.16-5.45-5.28-3-.1-6,0-9,0S378.37,398.92,375.51,399Z"/><path class="cls-8" d="M302.48,401.2l41.52.09a9.34,9.34,0,0,0,6.68-2.87c2-1.9,3.89-3.86,5.83-5.81a25.85,25.85,0,0,1,18.82-7.76c17.58-.09,35.16,0,52.75,0,1.49,0,3-.12,4.47-.19-.15-7.47,1.07-14.95-.1-22.41q-48.36,0-96.73.09c-1.87,0-3.74.06-5.62.09,0,4.52.71,9.11-1.23,13.45-.41,4.48-2.5,8.27-5,11.86C318.71,395.27,311.18,399.18,302.48,401.2Z"/><path class="cls-8" d="M103.07,384.87c11.48,0,23-.18,34.44,0,6.84.11,13.32,2.3,17.67,7.64,5.86,7.18,12.82,9.6,21.94,8.93,10.3-.76,20.7-.27,31-.32-19.38-5.13-27.93-20.89-26.25-38.71-14.74,0-29.49-.11-44.23-.12q-29.25,0-58.49,0,0,11.22,0,22.42Z"/><path class="cls-10" d="M410.59,300.76a543,543,0,0,1-57.79,18.88c-1.72,3.78,0,6.39,3,8.44,6.37,4.35,12.1,9.88,20.18,11.16.33.05.56.72.84,1.11,10.88-1.25,21.77-2.48,32.66-3.76,3.43-.4,4.9-2.34,4.85-5.85-.12-9.23-.06-18.47-.07-27.71A4.65,4.65,0,0,0,410.59,300.76Z"/><path class="cls-5" d="M103.07,384.87l-23.83-.13c0,11-.22,22,.05,32.93.16,6.43,3,12,7.35,16.77,4.42,4,9.42,7,15.46,7.26,7.54.29,15.1,0,22.65,0A27.16,27.16,0,0,1,107,429.76a23,23,0,0,1-4-12.65C102.91,406.37,103.05,395.62,103.07,384.87Z"/><path class="cls-11" d="M425.39,434.38c-6.3,5.54-13.6,7.76-22,7.51-10.46-.32-20.93-.05-31.39,0,0,2.5-.07,5,0,7.48.23,7.67,5.28,13,12.87,13.22q13.83.31,27.68,0c7.56-.17,12.79-5.69,12.9-13.21C425.53,444.35,425.42,439.36,425.39,434.38Z"/><path class="cls-11" d="M124.75,441.71c-7.55,0-15.11.28-22.65,0-6-.23-11-3.28-15.46-7.26,0,5-.18,10-.1,14.95.13,7.5,5.4,13,12.95,13.17q13.83.3,27.66,0c7.58-.18,12.62-5.57,12.84-13.22.07-2.49,0-5,0-7.48Z"/><path class="cls-12" d="M118.83,307.28l-17.1-6.54c-1.5,0-2.63.83-3.79,1.6-.06,9.87-.09,19.73-.21,29.59a4.17,4.17,0,0,0,4,4.61c5.68.6,11.3,1.89,17.06,1.72a11,11,0,0,1-1.53-6.38c.1-5.95.11-11.9,0-17.85A12.35,12.35,0,0,1,118.83,307.28Z"/><path class="cls-13" d="M210.59,196.36c.06,23.63-18.26,45.41-41.55,47.33-2-.26-4.11-.37-6.12-.79-25.46-5.3-41.34-28.11-37.65-54,3-21.18,22.4-38.71,43.77-39.5C191.93,151.13,210.54,172.73,210.59,196.36Z"/><path class="cls-14" d="M169.05,149.36a46,46,0,0,1,6,0,47.26,47.26,0,1,1-6,94.34,9.53,9.53,0,0,1,1.35-.5c11-2.17,20.45-7.11,27.81-15.8,9.21-10.88,13.12-23.32,11-37.44-2.71-17.87-12.7-30.17-29.23-37.35-3.53-1.53-7.37-1.86-10.92-3.23Z"/><path class="cls-15" d="M172.48,160q8.81,22,17.68,44c.75,1.79.09,2.09-1.62,2.09-4.69-.06-9.43,0-14.17-.06-1.74,0-2.46.47-2.37,2.33.1,2.45,0,4.92,0,7.38v17.38c-6.38-14.64-12.25-29.3-18.17-44-.79-1.8-.13-2.13,1.58-2.1,4.53.08,9.06-.08,13.59.08,2.27.08,3-.56,3-2.93-.15-8.07-.07-16.14-.07-24.22Z"/><path class="cls-16" d="M139.82,291.67c1.5.07,3,.19,4.49.19h158.6c1.12,0,2.24-.11,3.36-.17-.1-1.72-1.52-2.52-2.54-3.55q-25.8-25.84-51.61-51.65c-2.73-2.74-5.37-5.56-8.05-8.34H219.3c-3.77,14.27-13.06,23.87-26.2,29.64a43.52,43.52,0,0,1-36.13.14c-3.13-1.37-4,.23-4.9,2.5Q145.94,276.06,139.82,291.67Z"/><path class="cls-17" d="M346,291.69l38.25.12c-1-1.12-1.91-2.3-3-3.35L324.6,231.71c-1-1-2.42-1.85-2.64-3.52l-37.43-.09c0,1.75,1.49,2.53,2.52,3.55q28.18,28.26,56.42,56.49C344.5,289.17,345.92,290,346,291.69Z"/><path class="cls-17" d="M244.07,228.15c2.68,2.78,5.32,5.6,8.05,8.34q25.78,25.83,51.61,51.65c1,1,2.44,1.83,2.54,3.55l25.5.13c0-1.74-1.44-2.57-2.48-3.59-9.58-9.42-19-19-28.78-28.23s-19.32-19.18-28.94-28.81c-.86-.87-2-1.59-2.12-3Z"/><path class="cls-7" d="M269.45,228.21c.15,1.39,1.26,2.11,2.12,3,9.62,9.63,19,19.5,28.94,28.81s19.2,18.81,28.78,28.23c1,1,2.44,1.85,2.48,3.59l14.25-.13c-.1-1.72-1.52-2.52-2.55-3.55q-28.2-28.26-56.42-56.49c-1-1-2.49-1.8-2.52-3.55Z"/><path class="cls-18" d="M181.92,362.42c-1.68,17.82,6.87,33.58,26.25,38.71l23.07.14c-.53-.85-1.5-.87-2.3-1.09-11.12-3.07-18.59-10-22.58-20.84-1-2.7-.49-3.6,2.41-3.59q60.06.09,120.1.09c1.94-4.34,1.19-8.93,1.23-13.45Z"/><path class="cls-10" d="M118.83,307.28a12.35,12.35,0,0,0-1.61,6.75c.12,6,.11,11.9,0,17.85a11,11,0,0,0,1.53,6.38c11.09,1.63,22.21,3,33.38,3.84,10.22.78,17.71-5.19,25.2-10.73,3.06-2.26,1.53-6.26-2.69-7.48-9.09-2.63-18.19-5.22-27.34-7.62C137.66,313.74,128.19,310.7,118.83,307.28Z"/><path class="cls-12" d="M376.81,340.35c-.28-.39-.51-1.06-.84-1.11-8.08-1.28-13.81-6.81-20.18-11.16-3-2.05-4.71-4.66-3-8.44a106.21,106.21,0,0,0-16.49,4.46c-3.71,1.24-4.51,5.54-1.44,7.69,7.22,5,14.24,10.81,23.8,10.53A130.16,130.16,0,0,0,376.81,340.35Z"/><path class="cls-19" d="M328.87,375.84q-60,0-120.1-.09c-2.9,0-3.41.89-2.41,3.59,4,10.84,11.46,17.77,22.58,20.84.8.22,1.77.24,2.3,1.09l71.23-.07c8.71-2,16.24-5.93,21.43-13.5C326.37,384.11,328.46,380.32,328.87,375.84Z"/><path class="cls-8" d="M127.68,399c-2.87,0-5.74-.07-8.6,0-3.63.1-5.41,1.81-5.59,5.15-.15,3,1.8,5.84,4.89,6,6.22.26,12.47.27,18.69,0,3.25-.13,5.13-2.9,5-6.26-.15-3.21-2-4.79-5.76-4.88C133.41,398.93,130.55,399,127.68,399Z"/><path class="cls-8" d="M384.1,399c-2.86,0-5.73-.07-8.59,0-3.61.11-5.39,1.83-5.55,5.16-.15,3.07,1.78,5.84,4.87,6,6.21.26,12.45.25,18.67,0a5.4,5.4,0,0,0,5-5.86c-.12-3.37-1.89-5.16-5.45-5.28C390.08,398.91,387.09,399,384.1,399Z"/></g></g></svg>