<svg xmlns="http://www.w3.org/2000/svg" xmlns:xlink="http://www.w3.org/1999/xlink" viewBox="0 0 692.58 754.65"><defs><style>.cls-1{fill:url(#Sfumatura_senza_nome_4);}.cls-2{fill:url(#Sfumatura_senza_nome_4-2);}.cls-3{fill:#505050;}.cls-4{fill:#565656;}.cls-5{fill:#fff;}.cls-6{opacity:0.24;}.cls-7{fill:#f96450;}.cls-8{fill:#3cc7b3;}.cls-9{fill:#1ea995;}.cls-10{fill:#db4632;}.cls-11{fill:#f9b300;}.cls-12{fill:#3c3c3c;}.cls-13{fill:#db9500;}.cls-14{fill:#db9600;}.cls-15{fill:#f8b200;}</style><linearGradient id="Sfumatura_senza_nome_4" x1="108.39" y1="41.18" x2="692.29" y2="582.48" gradientTransform="matrix(1, 0, 0, -1, 0, 756)" gradientUnits="userSpaceOnUse"><stop offset="0" stop-color="#3fa34d"/><stop offset="1" stop-color="#137547"/></linearGradient><linearGradient id="Sfumatura_senza_nome_4-2" x1="36.96" y1="118.08" x2="621.85" y2="660.3" xlink:href="#Sfumatura_senza_nome_4"/></defs><title>scooter</title><g id="Livello_2" data-name="Livello 2"><g id="Livello_1-2" data-name="Livello 1"><path class="cls-1" d="M525.55,0C420.62,0,330.58,63.73,292,154.6a256.88,256.88,0,0,0-38.48-2.9C113.51,151.7,0,265.22,0,405.25,0,527.76,86.88,630,202.39,653.64,284.23,762.24,437.15,787,549.05,709.71A254.87,254.87,0,0,0,692.58,694V62.8A252.56,252.56,0,0,0,525.55,0ZM453.48,249.31c.88,1.12,1.74,2.25,2.59,3.38q-2.94-.6-5.91-1.13C451.26,250.8,452.36,250.05,453.48,249.31Z"/><path class="cls-2" d="M456.07,252.69q-2.94-.6-5.91-1.13c1.1-.76,2.2-1.51,3.32-2.25C454.36,250.43,455.22,251.56,456.07,252.69Z"/><path class="cls-2" d="M456.07,252.69q-2.94-.6-5.91-1.13c1.1-.76,2.2-1.51,3.32-2.25C454.36,250.43,455.22,251.56,456.07,252.69Z"/><path class="cls-2" d="M456.07,252.69q-2.94-.6-5.91-1.13c1.1-.76,2.2-1.51,3.32-2.25C454.36,250.43,455.22,251.56,456.07,252.69Z"/><rect class="cls-3" x="244.15" y="528.45" width="448.43" height="26.67"/><polygon class="cls-4" points="692.58 403.85 692.58 528.45 244.15 528.45 184.58 403.85 692.58 403.85"/><polygon class="cls-5" points="377.67 463.92 229.03 463.92 226.96 448.13 375.6 448.13 377.67 463.92"/><polygon class="cls-5" points="692.58 448.13 692.58 463.92 651.97 463.92 649.9 448.13 692.58 448.13"/><polygon class="cls-5" points="570.9 463.92 422.26 463.92 420.19 448.13 568.83 448.13 570.9 463.92"/><ellipse class="cls-6" cx="469.07" cy="476.5" rx="201.5" ry="49.65"/><path class="cls-7" d="M585.05,170.79c27.05,1,51.57,23.19,55.4,50,4.67,32.8-15.43,61.67-47.66,68.38-2.54.53-5.16.67-7.74,1-29.49-2.43-52.67-30-52.6-59.91S556.07,173,585.05,170.79Z"/><path class="cls-8" d="M366,254.45v49.61c1.9,3.3.73,6.89,1,10.35.14,7.64.1,15.28,0,22.92-.13,1.48-.1,3-.11,4.46-.09,11.32,3.84,16.45,14.89,19.46a2.78,2.78,0,0,1,1.89,1.06l27.48,33.88q19.08,23.42,38.24,46.79c.94,1.14,2.06,2.12,3.1,3.18,2.89,1.69,4.77,4.38,6.64,7,2,2.83,4.54,3.74,8,3.72,25.25-.1,50.5-.05,75.76-.05,1.37,0,2.74,0,4.1.06,4.21-.11,8.42-.13,12.63,0,4-.07,7.89-.14,11.83,0,7-.07,13.94-.11,20.9,0,8.28.12,14.14,5.72,14,13.24-.09,7.36-5.9,12.77-14,12.89-7,.09-13.93.07-20.9,0-4-.21-8,1-11.81-1l-86.83-.1c-1.24,0-2.48-.07-3.72-.12-7.4-.27-12.41-4.65-16.7-10L367,365.08c-.69,4.43.32,8.7-.43,12.9-.91.39-.7,1.22-.69,1.92q0,21.86.11,43.72c2,4,.7,8.34,1,12.51q.17,16.44,0,32.87c-.06,6.36-3.15,11.1-8.25,13-1.75.65-3.58,1.32-5.24-.29-1-1.72-.8-3.62-.8-5.47V248.14a14.71,14.71,0,0,1,.44-4.81,2.91,2.91,0,0,1,.84-1.21c4-1.13,8-1.46,12,.24l-.11.11A14.48,14.48,0,0,1,366,254.45Z"/><path class="cls-8" d="M473.72,314.38l23.84-.2a15.51,15.51,0,0,1,12,0c3.11,0,6.22.15,9.32.09,1.75,0,2.71.24,2.7,2.38-.09,15.67.2,31.33-.17,47-.3,12.55-10.12,21.51-23.81,22.58a4.5,4.5,0,0,1-3.9.63c-14.41-2.75-21.35-14.19-21.2-26.6.17-13.54,0-27.08.06-40.62C472.54,317.83,472.13,315.86,473.72,314.38Z"/><path class="cls-9" d="M353.91,242.6V481.79c-1.67,1.65-3.52,1-5.17.17-4.87-2.52-7.91-6.34-7.93-12.07-.05-8.7,0-17.4,0-26.09-.06-2.5,0-5,0-7.48s0-5,0-7.46c0-1.83-.21-3.7,1-5.3,0-1.5.11-3,.11-4.48V246.94c0-1.49.07-3,.11-4.47C346,240.76,350,240.52,353.91,242.6Z"/><path class="cls-3" d="M571.62,482c7,0,14-.07,20.92-.13,7.47-.06,12.85-5.2,12.76-12.15C605.21,463,599.85,458,592.54,458c-7-.06-13.95-.09-20.92-.13-1-1.44,0-2.61.6-3.78,4.17-8.82,11-14.79,19.95-18.45,1.71-.7,3.44-1.37,5.15-2.08,14.84.74,28.86,13.31,32.07,28.83.51,2.48,1.64,5.06,0,7.58-1.58,19.6-11.72,31.33-30.86,35.66a11.56,11.56,0,0,1-2.2.12,40,40,0,0,1-18.89-11.84,36,36,0,0,1-5.82-9.42A2.06,2.06,0,0,1,571.62,482Z"/><path class="cls-3" d="M341.81,443.75c0,8.84.06,17.69.13,26.53A11.48,11.48,0,0,0,353.4,481.8h.54c7.1-.29,11.85-5,11.92-12.05.11-11.16.1-22.33.14-33.5,1.27-.9,2.39-.13,3.46.39,12.35,6,19.13,16,21.2,29.4a4.84,4.84,0,0,1-.72,3.91c-1.58,19.6-11.72,31.33-30.86,35.66a11.45,11.45,0,0,1-2.19.12,39.64,39.64,0,0,1-17.46-10.3c-12.54-12.72-14-33.45-3-47.57C337.79,446.05,339,443.82,341.81,443.75Z"/><path class="cls-9" d="M473.72,314.38c0,16.33-.42,32.67,0,49,.29,10.41,7,19.75,19.14,22.12a3.11,3.11,0,0,1,.95.55c-2.51,2.09-5.49,1-8.28,1.2-4-.25-8.11,1-11.95-1-14.53-.78-23.92-10.62-23.93-25.1s.05-29.16,0-43.74c0-2.38.53-3.31,3.06-3.14,3,.19,6,0,9-.07a15.36,15.36,0,0,1,11.94,0Z"/><path class="cls-10" d="M585.05,170.79c-4.5,1.73-9.36,2.15-13.83,4.09-20.92,9.08-33.57,24.65-37,47.28-2.7,17.87,2.25,33.61,13.9,47.39,9.32,11,21.25,17.25,35.21,20a12.84,12.84,0,0,1,1.7.63,59.83,59.83,0,1,1,0-119.42Z"/><path class="cls-3" d="M341.93,218.65l-15-.25c-6.29-1.3-10-5.82-9.88-12.06.1-6.08,3.81-10.46,9.88-11.63h59.88c0,1.47-1.38,1.56-2.25,2.12-7.73,5-7.73,14.49,0,19.45.87.56,2.22.65,2.26,2.12l-20.95.25c-3.85,1.95-8,.72-12,1C349.91,219.38,345.79,220.61,341.93,218.65Z"/><path class="cls-9" d="M366.58,378c-1.56-4.74-.22-9.57-.9-15.19,4,3.25,6.16,6.85,8.75,10,13.89,17.17,27.64,34.45,41.41,51.71,12.46,15.62,24.85,31.28,37.32,46.89a28.41,28.41,0,0,0,15.91,10.35c-4.11.14-8.25.53-12.31-.2-6.71-1.21-11.68-5.14-15.86-10.4Q415,438.55,388.9,406,377.71,392,366.58,378Z"/><path class="cls-3" d="M547,457.85c-27.83,0-55.67,0-83.51.2-3,0-3.16-2.23-4.48-3.67-2.36-2.58-5-4.91-6.48-8.22,6.72-.05,13.44-.16,20.15-.16q39.41,0,78.8.1C551.49,450.6,548.79,454.06,547,457.85Z"/><path class="cls-11" d="M629.37,469.94c-1.54-20.05-13.15-32.89-32.32-35.76-3.44,1.41-7.14.64-10.69,1.41-9.4,2-16.56,7.17-22.13,14.81-.78,1.07-1.28,2.51-3,2.49-1.7-2.27,0-4.08,1-5.77,7.92-13.86,19.25-22.94,35.54-24.87,23.91,3.42,39.68,18.86,43.15,42.25.8,5.43.8,5.43-4.47,5.44Z"/><path class="cls-12" d="M341.81,443.75c-16.62,14.18-15.51,41.67,2.16,54.55a40.09,40.09,0,0,0,10.78,5.7c.88.3,2.08.29,2.13,1.68-19.44,2.08-38.84-13.5-39-35.78-1.86-3.17-.36-6.26.28-9.35a32.51,32.51,0,0,1,2-6,39.23,39.23,0,0,1,16.12-17.15c1.69-.93,3.38-2.23,5.54-1.27Z"/><path class="cls-11" d="M389.93,469.94c-1-16.18-8.58-27.71-23.94-33.7V423.62c20,5.8,33.18,21.22,35.61,41.61.56,4.7.56,4.7-4.2,4.7Z"/><path class="cls-7" d="M401.67,314.29v24a2.87,2.87,0,0,1-2,1c-7.08.16-14.16.68-21.23-.29a2.41,2.41,0,0,1-1.08-.92,90.77,90.77,0,0,1-.14-23.23,2.3,2.3,0,0,1,1-1c7.26-1.18,14.56-.62,21.85-.32A2.49,2.49,0,0,1,401.67,314.29Z"/><path class="cls-12" d="M473.61,386.23h12c1.37,1.41,1.21,3.22,1.22,4.94V429c0,1.72.18,3.53-1.2,4.94-3.84,0-8.72,1.36-11.21-.48s-.69-7-.71-10.63C473.56,410.6,473.61,398.41,473.61,386.23Z"/><path class="cls-3" d="M485.58,433.9V386.24l8.27-.21,3.73.19c0,14.81-.09,29.61.07,44.41,0,2.82-.7,3.71-3.49,3.44S488.43,433.94,485.58,433.9Z"/><path class="cls-13" d="M321,454.54c-1.51,5-3.35,10-3.18,15.4a70.11,70.11,0,0,0-8.2.06c-3.4.4-4-1.09-3.65-4,1.63-15.55,9-27.65,21.91-36.35a40.93,40.93,0,0,1,13.89-6.09v5.26c-.66,1.63-2.2,2.33-3.5,3.25C330.25,437.79,324.93,445.62,321,454.54Z"/><path class="cls-12" d="M386.82,218.4c-7.84-3.55-10.82-9.6-8.05-16.53,1.48-3.69,4.51-5.74,8-7.16,9.22-.48,15,4.08,15,11.84S396,218.88,386.82,218.4Z"/><path class="cls-13" d="M597.79,422.25c-6.92,2.29-13.93,4.2-20,8.6a51.85,51.85,0,0,0-15.69,18.6,5.83,5.83,0,0,0-.85,3.57,4.57,4.57,0,0,1-1.52,4.8H547c.61-4.26,2.92-7.86,4.48-11.75,6.83-10.52,15.76-18.36,28-22.1A47,47,0,0,1,597.79,422.25Z"/><path class="cls-11" d="M377.85,338.35l23.82-.1c.31,5.33.51,10.63-2.59,15.38a17,17,0,0,1-10,7.67C379.84,358.58,374.1,346.82,377.85,338.35Z"/><path class="cls-11" d="M401.67,314.29l-23.82-.09c-3.75-8.47,2-20.23,11.21-23,8.13,2.84,12.62,9,12.72,17.51C401.8,310.6,401.71,312.45,401.67,314.29Z"/><path class="cls-12" d="M326.93,194.71c-7.82,3.58-10.74,9.58-8,16.51,1.46,3.76,4.75,5.47,8,7.18-3.11,0-6.21.16-9.32.11a12,12,0,0,1,0-23.91C320.72,194.56,323.83,194.67,326.93,194.71Z"/><path class="cls-14" d="M389.06,291.24c-1.09,1.81-3.24,2.13-4.76,3.41-6.23,5.24-6.91,12.17-6.45,19.55v.22A14.48,14.48,0,0,1,366,314.3V304.06c2.37-6.47,6.29-11.4,13.3-13.18A15,15,0,0,1,389.06,291.24Z"/><path class="cls-14" d="M377.85,338.35c-.46,7.37.22,14.31,6.45,19.54,1.52,1.28,3.66,1.61,4.76,3.41-1.66,1.08-3.57.76-5.39,1-10.89-.11-18.82-9.75-17.81-19.23.16-1.6.1-3.22.14-4.83,3.93-1.87,7.89-1.64,11.85-.12Z"/><path class="cls-12" d="M571.62,482c3.89,10.68,11.33,17.75,21.87,21.75,1,.39,2.65.2,2.82,1.94-19.53,1.85-33.63-12.44-36.69-23.72Z"/><path class="cls-13" d="M341.93,218.65h12a2.89,2.89,0,0,1,1,2,191.72,191.72,0,0,1,0,19.77,2.87,2.87,0,0,1-1,2v.25l-11.86-.13Z"/><path class="cls-11" d="M353.89,242.35v-23.7h11.94q.06,11.86.1,23.72Z"/><path class="cls-11" d="M473.59,314.19H461.65c0-7,.09-13.95,0-20.92,0-2.24.5-2.95,2.87-3,9.15-.06,9.15-.16,9.15,9Q473.6,306.71,473.59,314.19Z"/><path class="cls-11" d="M509.53,314.18h-12c0-7.1.06-14.2,0-21.29,0-1.9.46-2.52,2.47-2.59,9.54-.32,9.54-.39,9.54,8.94Q509.54,306.71,509.53,314.18Z"/><path class="cls-3" d="M366,254.45q-.06-6-.11-12c2.11,0,4.24-.12,6.34.05a5.93,5.93,0,0,1,.11,11.84C370.21,254.56,368.08,254.44,366,254.45Z"/><path class="cls-11" d="M581.37,184.22c0,10.22.11,20.44-.08,30.65,0,3,.93,3.82,3.81,3.72,5.73-.21,11.47,0,17.2-.1,2.16-.05,3,.37,2,2.65-7.49,18.55-14.92,37.11-23,55.63v-22c0-3.11-.13-6.24,0-9.34.12-2.35-.8-3-3-3-6,.12-12,0-17.94.08-2.16,0-3-.38-2.05-2.65q11.24-27.82,22.38-55.68Z"/><path class="cls-12" d="M559.68,457.82c.51-1.6,1-3.2,1.52-4.8,3.22-4.75,6.66-9.3,11.47-12.59a35.47,35.47,0,0,1,24.38-6.25c-.7,1.47-2.27,1.43-3.49,1.89-10.57,4-18,11.07-21.94,21.77Z"/><path class="cls-10" d="M377.85,338.13l-11.85.12V314.3l11.85.12Z"/><path class="cls-15" d="M321,454.54c-.32-2.43,1.14-4.27,2.17-6.19,4.37-8.23,10.2-15.12,18.6-19.53v7.38c-8.14,2.57-14.06,7.91-18.61,14.94C322.47,452.27,321.76,453.41,321,454.54Z"/></g></g></svg>